<svg width="51" height="52" viewBox="0 0 51 52" fill="none" xmlns="http://www.w3.org/2000/svg">
<g clip-path="url(#clip0_113_7)">
<path d="M42.6333 30.0342L42.6669 21.245C42.697 13.3603 37.4675 6.69809 30.3563 4.67334C29.6585 2.86184 27.9414 1.58076 25.9068 1.57298C23.8721 1.5652 22.1453 2.83312 21.4337 4.63923C14.3072 6.61201 9.02692 13.2316 8.99678 21.1163L8.96318 29.9055L4.84184 34.0736C4.6172 34.2999 4.43871 34.5693 4.31664 34.8663C4.19456 35.1632 4.13132 35.4818 4.13055 35.8037L4.11181 40.7056C4.10933 41.3557 4.36033 41.9801 4.80959 42.4414C5.25886 42.9028 5.8696 43.1634 6.50745 43.1658L44.9875 43.3129C45.6254 43.3153 46.2381 43.0594 46.6909 42.6015C47.1437 42.1436 47.3994 41.5212 47.4019 40.8711L47.4207 35.9692C47.4223 35.6473 47.3615 35.3282 47.2417 35.0304C47.1219 34.7325 46.9455 34.4617 46.7226 34.2337L42.6333 30.0342ZM42.6013 38.4018L8.93119 38.2731L8.93668 36.8368L13.058 32.6687C13.2827 32.4423 13.4611 32.1729 13.5832 31.876C13.7053 31.5791 13.7685 31.2605 13.7693 30.9386L13.8068 21.1347C13.8326 14.3774 19.2481 8.90052 25.8787 8.92587C32.5093 8.95121 37.8827 14.4693 37.8568 21.2266L37.8194 31.0305C37.8169 31.6825 38.067 32.306 38.5174 32.766L42.6068 36.9655L42.6013 38.4018ZM25.7194 50.5922C27.2088 50.5998 28.6636 50.1344 29.8816 49.2605C31.0995 48.3866 32.0201 47.1478 32.5154 45.7162L18.9608 45.6644C19.4451 47.0997 20.3563 48.3456 21.5675 49.2287C22.7788 50.1119 24.23 50.5884 25.7194 50.5922V50.5922Z" fill="#23A6F0"/>
</g>
<defs>
<clipPath id="clip0_113_7">
<rect width="50" height="50" fill="white" transform="translate(0.910156 0.986816) rotate(0.219027)"/>
</clipPath>
</defs>
</svg>
