<svg width="51" height="51" viewBox="0 0 51 51" fill="none" xmlns="http://www.w3.org/2000/svg">
<g clip-path="url(#clip0_113_4)">
<path d="M34.8054 16.3046C34.8063 16.0591 34.6062 15.8574 34.3607 15.8565L30.6776 15.8591L25.1055 22.4506L19.5895 15.8223L15.901 15.7915C15.6555 15.7905 15.4538 15.9851 15.4529 16.2362C15.4525 16.3422 15.4911 16.4428 15.5578 16.5268L22.7847 25.204L15.4917 33.8202C15.4239 33.9017 15.3861 34.004 15.3845 34.1099C15.3836 34.3555 15.5837 34.5571 15.8293 34.5581L19.5179 34.5554L25.0844 27.9639L30.6004 34.5922L34.2834 34.623C34.5289 34.624 34.7305 34.4294 34.7315 34.1783C34.7319 34.0723 34.6932 33.9717 34.6266 33.8877L27.4108 25.2161L34.7038 16.5944C34.7711 16.5165 34.805 16.4106 34.8054 16.3046Z" fill="#23A6F0"/>
<path d="M25.1907 0.0955683C11.385 0.0427924 0.148126 11.1941 0.0953497 24.9998C0.0425738 38.8055 11.1939 50.0424 24.9996 50.0952C38.8053 50.148 50.0422 38.9967 50.095 25.191C50.1478 11.3853 38.9964 0.148344 25.1907 0.0955683ZM25.0158 45.8542C13.5538 45.8103 4.29257 36.478 4.33639 25.016C4.38021 13.5541 13.7126 4.29279 25.1745 4.33661C36.6365 4.38043 45.8978 13.7128 45.8539 25.1747C45.8101 36.6367 36.4778 45.898 25.0158 45.8542Z" fill="#23A6F0"/>
</g>
<defs>
<clipPath id="clip0_113_4">
<rect width="50" height="50" fill="white" transform="translate(0.190918) rotate(0.219027)"/>
</clipPath>
</defs>
</svg>
