<svg width="555" height="174" viewBox="0 0 555 174" fill="none" xmlns="http://www.w3.org/2000/svg">
<path fill-rule="evenodd" clip-rule="evenodd" d="M33.1018 108.897C33.1018 123.533 33.0613 138.17 33.1486 152.807C33.1611 154.824 32.3219 155.933 30.9492 156.791C26.778 159.396 22.5601 161.902 18.3983 164.527C14.7731 166.814 11.2103 169.218 7.59755 171.537C6.78953 172.054 5.92534 172.509 5.0362 172.83C2.74004 173.656 0.802644 171.808 0.815123 168.71C0.843202 162.201 1.00231 155.69 1.01791 149.182C1.06471 126.417 1.11774 103.657 1.03663 80.8945C1.02727 78.4914 1.82906 77.1262 3.57614 76.082C7.07031 73.9937 10.5645 71.9085 14.043 69.789C18.0208 67.3672 21.9767 64.908 25.945 62.4737C26.8123 61.9407 27.6703 61.3766 28.575 60.9277C30.6216 59.9085 33.08 61.7319 33.0894 64.294C33.1143 69.8264 33.0987 75.3589 33.0987 80.8914C33.1018 90.2264 33.1018 99.5615 33.1018 108.897Z" fill="#F7BA17"/>
<path fill-rule="evenodd" clip-rule="evenodd" d="M112.323 49.7567C112.323 53.846 112.291 57.9385 112.338 62.0279C112.357 63.8045 111.864 65.0824 110.314 65.924C106.897 67.7754 103.531 69.7266 100.162 71.6808C95.9718 74.1089 91.8412 76.6554 87.6139 78.993C85.4862 80.1712 82.641 79.844 82.6628 75.8232C82.6909 69.4866 82.6441 63.1468 82.6971 56.8102C82.7065 55.632 82.3914 54.9557 81.443 54.3541C75.5528 50.6107 69.7126 46.7832 63.838 43.0118C57.5672 38.9847 51.259 35.0263 45.0007 30.9744C40.452 28.0258 35.9408 25.0024 31.4452 21.9541C29.5265 20.6544 29.5858 17.9364 31.5544 16.6616C37.5163 12.806 43.5032 9.00034 49.4838 5.17904C51.4711 3.91047 53.4896 2.69177 55.4457 1.36709C56.6437 0.553584 57.7201 0.481895 58.9618 1.27358C66.1966 5.8928 73.4469 10.484 80.7098 15.0471C85.48 18.0455 90.3001 20.9536 95.064 23.9614C98.736 26.2834 102.352 28.7146 106.005 31.0679C107.49 32.0247 108.991 32.9473 110.526 33.8014C111.877 34.5525 112.338 35.7338 112.323 37.3172C112.291 41.4658 112.313 45.6144 112.313 49.7629C112.316 49.7567 112.32 49.7567 112.323 49.7567Z" fill="#547EBE"/>
<path fill-rule="evenodd" clip-rule="evenodd" d="M112.329 87.2217C112.329 91.8908 112.298 96.5599 112.348 101.229C112.363 102.613 111.877 103.523 110.785 104.143C107.509 106.01 104.236 107.877 100.976 109.775C97.9747 111.524 95.0109 113.344 92.0035 115.083C88.8618 116.901 85.6827 118.64 82.538 120.451C77.9706 123.081 73.4188 125.743 68.8577 128.389C65.1608 130.531 61.5044 132.762 57.7325 134.732C56.8216 135.209 55.4114 135.166 54.438 134.76C52.1481 133.813 49.9955 132.479 47.7679 131.347C45.3594 130.122 42.9229 128.963 40.5144 127.735C39.1947 127.065 37.8189 126.448 36.6427 125.534C36.0531 125.079 35.5477 124.023 35.529 123.228C35.2981 113.092 35.1359 102.953 35.0142 92.8134C34.983 90.3354 37.4102 88.8175 39.3788 90.0612C42.7669 92.2087 46.1051 94.456 49.462 96.6565C51.0343 97.6882 52.5786 98.7697 54.1978 99.7048C54.6034 99.9417 55.3241 99.8949 55.7515 99.658C59.1957 97.7505 62.6056 95.7682 66.0281 93.8014C70.7545 91.0866 75.4841 88.3843 80.1982 85.6508C86.5313 81.9791 92.8489 78.2825 99.1758 74.5952C101.762 73.0897 104.352 71.5905 106.935 70.0788C109.406 68.6326 112.494 69.7328 112.307 73.7349C112.098 78.2201 112.26 82.724 112.26 87.2186C112.291 87.2217 112.31 87.2217 112.329 87.2217Z" fill="#E74636"/>
<path fill-rule="evenodd" clip-rule="evenodd" d="M54.1978 40.5711C53.889 42.3539 53.2026 43.3544 52.0452 44.0339C47.9052 46.4588 43.7497 48.8526 39.6284 51.3149C34.2967 54.4973 28.9962 57.7326 23.68 60.9399C17.8772 64.4433 12.09 67.9809 6.25288 71.4157C4.87393 72.2261 3.35459 72.3757 1.94445 71.2225C0.503103 70.0412 0.936754 68.2427 0.874358 66.7622C0.69341 62.6386 0.808843 58.5025 0.811963 54.3695C0.815083 49.5601 0.811962 44.7508 0.827561 39.9414C0.8338 38.0994 1.54823 36.7061 3.0083 35.6962C7.92509 32.2957 12.8138 28.8485 17.7025 25.4074C19.3685 24.2355 21.0126 23.0199 22.6661 21.823C24.1761 20.729 25.7329 20.7695 27.246 21.7295C31.3142 24.3165 35.3574 26.9534 39.41 29.5747C43.6935 32.3487 48.0051 35.0729 52.2292 37.9498C53.0622 38.517 53.552 39.6796 54.1978 40.5711Z" fill="#37AB56"/>
<path d="M142.397 73.6285C142.397 50.5387 160.09 33.854 183.866 33.854C196.473 33.854 207.311 38.3828 214.499 46.7797L205.211 55.507C199.571 49.4291 192.604 46.4462 184.533 46.4462C168.498 46.4462 156.886 57.7169 156.886 73.6254C156.886 89.534 168.498 100.805 184.533 100.805C192.607 100.805 199.574 97.8218 205.211 91.6348L214.499 100.474C207.311 108.871 196.473 113.4 183.757 113.4C160.093 113.4 142.397 96.7184 142.397 73.6285Z" fill="white"/>
<path d="M214.168 82.7988C214.168 65.123 227.44 52.6367 245.575 52.6367C263.932 52.6367 277.091 65.1198 277.091 82.7988C277.091 100.475 263.932 113.07 245.575 113.07C227.44 113.07 214.168 100.475 214.168 82.7988ZM263.158 82.7988C263.158 71.5313 255.64 64.35 245.575 64.35C235.623 64.35 228.104 71.5313 228.104 82.7988C228.104 94.0694 235.623 101.251 245.575 101.251C255.64 101.248 263.158 94.0663 263.158 82.7988Z" fill="white"/>
<path d="M375.511 62.4701C375.511 79.4851 362.904 89.9797 342.557 89.9797H325.086V112.297H310.71V34.9604H342.557C362.904 34.9604 375.511 45.3428 375.511 62.4701ZM361.026 62.4701C361.026 52.7485 354.503 47.1132 341.896 47.1132H325.086V77.8269H341.896C354.5 77.8269 361.026 72.1916 361.026 62.4701Z" fill="white"/>
<path d="M416.431 52.6367V65.7837C415.214 65.5624 414.219 65.4533 413.223 65.4533C402.719 65.4533 396.083 71.6404 396.083 83.684V112.3H382.26V53.3006H395.419V61.9188C399.4 55.7287 406.588 52.6367 416.431 52.6367Z" fill="white"/>
<path d="M420.521 35.291C420.521 30.65 424.28 27.0063 429.368 27.0063C434.457 27.0063 438.216 30.4318 438.216 34.9606C438.216 39.823 434.566 43.5788 429.368 43.5788C424.28 43.5757 420.521 39.9321 420.521 35.291ZM422.402 53.3004H436.226V112.297H422.402V53.3004Z" fill="white"/>
<path d="M506.777 78.488V112.294H492.953V80.2552C492.953 69.7607 487.755 64.6771 478.908 64.6771C469.065 64.6771 462.432 70.6428 462.432 82.4651V112.297H448.608V53.3004H461.767V60.9243C466.301 55.5103 473.488 52.6396 482.115 52.6396C496.272 52.6365 506.777 60.6999 506.777 78.488Z" fill="white"/>
<path d="M554.11 109.092C550.794 111.745 545.818 113.069 540.839 113.069C527.901 113.069 520.491 106.219 520.491 93.1838V64.789H510.761V53.7396H520.491V40.2622H534.315V53.7396H550.129V64.789H534.315V92.8503C534.315 98.5947 537.191 101.69 542.498 101.69C545.375 101.69 548.139 100.917 550.238 99.2586L554.11 109.092Z" fill="white"/>
<path d="M162.461 147.274C162.461 151.426 159.397 154.805 153.126 154.805C149.604 154.805 146.154 153.68 144.073 151.813L145.692 149.032C147.349 150.581 150.094 151.672 153.123 151.672C156.82 151.672 158.935 149.983 158.935 147.309C158.935 144.706 157.07 143.017 152.842 143.017H150.871V140.554L157.07 132.952H145.199V129.892H161.472V132.285L155.026 140.24C159.962 140.695 162.461 143.475 162.461 147.274Z" fill="white"/>
<path d="M165.843 129.892H176.235C184.159 129.892 189.55 134.888 189.55 142.21C189.55 149.528 184.162 154.524 176.235 154.524H165.843V129.892ZM176.023 151.464C182.115 151.464 186.025 147.733 186.025 142.21C186.025 136.683 182.115 132.955 176.023 132.955H169.365V151.467H176.023V151.464Z" fill="white"/>
<path d="M220.511 138.479C220.511 143.827 216.636 147.066 210.225 147.066H204.132V154.524H200.61V129.892H210.225C216.636 129.892 220.511 133.13 220.511 138.479ZM216.989 138.479C216.989 134.96 214.63 132.952 210.119 132.952H204.132V144.002H210.119C214.627 144.005 216.989 141.998 216.989 138.479Z" fill="white"/>
<path d="M233.015 135.698V138.971C232.734 138.937 232.488 138.937 232.241 138.937C228.613 138.937 226.36 141.153 226.36 145.236V154.527H222.979V135.876H226.22V139.008C227.415 136.823 229.739 135.698 233.015 135.698Z" fill="white"/>
<path d="M234.672 130.103C234.672 128.872 235.657 127.887 236.961 127.887C238.266 127.887 239.251 128.838 239.251 130.035C239.251 131.3 238.3 132.288 236.961 132.288C235.657 132.285 234.672 131.334 234.672 130.103ZM235.271 135.876H238.652V154.527H235.271V135.876Z" fill="white"/>
<path d="M260.912 143.793V154.524H257.53V144.179C257.53 140.52 255.699 138.725 252.495 138.725C248.901 138.725 246.577 140.872 246.577 144.918V154.524H243.195V135.873H246.436V138.688C247.809 136.786 250.205 135.695 253.163 135.695C257.708 135.698 260.912 138.304 260.912 143.793Z" fill="white"/>
<path d="M275.778 153.433C274.758 154.312 273.207 154.736 271.691 154.736C267.922 154.736 265.773 152.661 265.773 148.895V138.656H262.603V135.876H265.773V131.793H269.155V135.876H274.508V138.656H269.155V148.755C269.155 150.762 270.212 151.888 272.078 151.888C273.064 151.888 274.015 151.57 274.72 151.009L275.778 153.433Z" fill="white"/>
<path d="M277.363 130.103C277.363 128.872 278.349 127.887 279.653 127.887C280.957 127.887 281.943 128.838 281.943 130.035C281.943 131.3 280.991 132.288 279.653 132.288C278.349 132.285 277.363 131.334 277.363 130.103ZM277.962 135.876H281.344V154.527H277.962V135.876Z" fill="white"/>
<path d="M303.603 143.793V154.524H300.221V144.179C300.221 140.52 298.39 138.725 295.186 138.725C291.592 138.725 289.268 140.872 289.268 144.918V154.524H285.886V135.873H289.127V138.688C290.5 136.786 292.896 135.695 295.854 135.695C300.399 135.698 303.603 138.304 303.603 143.793Z" fill="white"/>
<path d="M325.935 135.876V151.993C325.935 158.573 322.587 161.565 316.248 161.565C312.832 161.565 309.378 160.614 307.338 158.785L308.957 156.182C310.682 157.66 313.393 158.61 316.142 158.61C320.544 158.61 322.553 156.569 322.553 152.345V150.868C320.934 152.804 318.503 153.754 315.827 153.754C310.439 153.754 306.352 150.095 306.352 144.709C306.352 139.323 310.439 135.701 315.827 135.701C318.61 135.701 321.146 136.72 322.731 138.762V135.876H325.935ZM322.625 144.706C322.625 141.081 319.948 138.653 316.214 138.653C312.445 138.653 309.768 141.081 309.768 144.706C309.768 148.297 312.445 150.793 316.214 150.793C319.948 150.793 322.625 148.297 322.625 144.706Z" fill="white"/>
<path d="M343.443 132.952H334.988V129.892H355.382V132.952H346.928V154.524H343.44V132.952H343.443Z" fill="white"/>
<path d="M371.69 146.327H356.543C356.964 149.6 359.607 151.781 363.307 151.781C365.491 151.781 367.322 151.043 368.695 149.528L370.56 151.71C368.869 153.68 366.299 154.736 363.198 154.736C357.173 154.736 353.158 150.759 353.158 145.198C353.158 139.672 357.139 135.698 362.527 135.698C367.915 135.698 371.755 139.569 371.755 145.304C371.761 145.588 371.727 146.009 371.69 146.327ZM356.546 143.899H368.523C368.171 140.766 365.812 138.55 362.536 138.55C359.292 138.55 356.899 140.732 356.546 143.899Z" fill="white"/>
<path d="M372.819 145.198C372.819 139.638 376.94 135.698 382.681 135.698C386.028 135.698 388.808 137.07 390.29 139.675L387.719 141.33C386.521 139.501 384.69 138.656 382.646 138.656C378.984 138.656 376.235 141.224 376.235 145.202C376.235 149.247 378.984 151.781 382.646 151.781C384.69 151.781 386.521 150.937 387.719 149.107L390.29 150.725C388.811 153.327 386.028 154.736 382.681 154.736C376.94 154.736 372.819 150.759 372.819 145.198Z" fill="white"/>
<path d="M410.225 143.793V154.524H406.843V144.179C406.843 140.52 405.012 138.725 401.808 138.725C398.214 138.725 395.89 140.872 395.89 144.918V154.524H392.508V128.414H395.89V138.513C397.3 136.717 399.624 135.698 402.476 135.698C407.021 135.698 410.225 138.304 410.225 143.793Z" fill="white"/>
<path d="M432.31 143.793V154.524H428.928V144.179C428.928 140.52 427.097 138.725 423.893 138.725C420.299 138.725 417.975 140.872 417.975 144.918V154.524H414.593V135.873H417.834V138.688C419.207 136.786 421.603 135.695 424.561 135.695C429.106 135.698 432.31 138.304 432.31 143.793Z" fill="white"/>
<path d="M435.059 145.198C435.059 139.638 439.18 135.698 444.78 135.698C450.38 135.698 454.467 139.638 454.467 145.198C454.467 150.759 450.38 154.736 444.78 154.736C439.18 154.736 435.059 150.759 435.059 145.198ZM451.051 145.198C451.051 141.221 448.374 138.653 444.78 138.653C441.186 138.653 438.475 141.221 438.475 145.198C438.475 149.176 441.186 151.778 444.78 151.778C448.374 151.778 451.051 149.176 451.051 145.198Z" fill="white"/>
<path d="M457.25 128.414H460.632V154.524H457.25V128.414Z" fill="white"/>
<path d="M463.449 145.198C463.449 139.638 467.57 135.698 473.17 135.698C478.77 135.698 482.857 139.638 482.857 145.198C482.857 150.759 478.77 154.736 473.17 154.736C467.57 154.736 463.449 150.759 463.449 145.198ZM479.441 145.198C479.441 141.221 476.764 138.653 473.17 138.653C469.576 138.653 466.865 141.221 466.865 145.198C466.865 149.176 469.576 151.778 473.17 151.778C476.764 151.778 479.441 149.176 479.441 145.198Z" fill="white"/>
<path d="M503.498 135.876V151.993C503.498 158.573 500.153 161.565 493.811 161.565C490.395 161.565 486.941 160.614 484.901 158.785L486.52 156.182C488.245 157.66 490.956 158.61 493.705 158.61C498.107 158.61 500.116 156.569 500.116 152.345V150.868C498.497 152.804 496.066 153.754 493.39 153.754C488.002 153.754 483.915 150.095 483.915 144.709C483.915 139.323 488.002 135.701 493.39 135.701C496.172 135.701 498.709 136.72 500.294 138.762V135.876H503.498ZM500.188 144.706C500.188 141.081 497.511 138.653 493.776 138.653C490.008 138.653 487.331 141.081 487.331 144.706C487.331 148.297 490.008 150.793 493.776 150.793C497.511 150.793 500.188 148.297 500.188 144.706Z" fill="white"/>
<path d="M507.444 130.103C507.444 128.872 508.43 127.887 509.734 127.887C511.038 127.887 512.024 128.838 512.024 130.035C512.024 131.3 511.073 132.288 509.734 132.288C508.43 132.285 507.444 131.334 507.444 130.103ZM508.043 135.876H511.425V154.527H508.043V135.876Z" fill="white"/>
<path d="M532.768 146.327H517.621C518.042 149.6 520.685 151.781 524.385 151.781C526.569 151.781 528.4 151.043 529.773 149.528L531.638 151.71C529.947 153.68 527.377 154.736 524.276 154.736C518.251 154.736 514.236 150.759 514.236 145.198C514.236 139.672 518.217 135.698 523.605 135.698C528.993 135.698 532.833 139.569 532.833 145.304C532.839 145.588 532.805 146.009 532.768 146.327ZM517.624 143.899H529.601C529.248 140.766 526.89 138.55 523.614 138.55C520.37 138.55 517.977 140.732 517.624 143.899Z" fill="white"/>
<path d="M533.264 152.554L534.674 149.88C536.259 151.005 538.795 151.816 541.225 151.816C544.361 151.816 545.665 150.865 545.665 149.282C545.665 145.096 533.866 148.717 533.866 141.293C533.866 137.949 536.861 135.698 541.65 135.698C544.08 135.698 546.829 136.331 548.448 137.388L547.003 140.062C545.312 138.971 543.447 138.584 541.615 138.584C538.658 138.584 537.213 139.675 537.213 141.153C537.213 145.551 549.047 141.963 549.047 149.21C549.047 152.589 545.946 154.736 540.982 154.736C537.878 154.736 534.811 153.786 533.264 152.554Z" fill="white"/>
</svg>
